# xmcd
#
# Track frame offsets: 
#        150
#        13268
#        24962
#        42554
#        59314
#        71452
#        88463
#        100280
#        113785
#        132235
#        147311
#        160383
#        173043
#        184420
#        197814
#
# Disc length: 2874 seconds
#
# Revision: 0
# Processed by: cddbd v1.5.2PL0 Copyright (c) Steve Scherf et al.
# Submitted via: ExactAudioCopyFreeDBPlugin 1.0
#
DISCID=dc0b380f
DTITLE=Gzuz, Bonez MC - High and Hungrig 2
DYEAR=2016
DGENRE=Rap
TTITLE0=Intro
TTITLE1=Wolke 7
TTITLE2=Gzuz, SA4, Capuz - Legendär
TTITLE3=Meine Couch
TTITLE4=Gzuz, LX  - Optimal
TTITLE5=Bonez MC, Hanybal - Hauptsache laut
TTITLE6=Gzuz, Kontra K - Alles okay
TTITLE7=Das Gefühl
TTITLE8=Unser Park
TTITLE9=Blättchen and Ganja
TTITLE10=Oh Weia
TTITLE11=Gzuz, Bonez MC, Maxwell - Model
TTITLE12=Rum Cola
TTITLE13=Wiederbelebt
TTITLE14=Einfach weiterfliegen
EXTD=
EXTT0=
EXTT1=
EXTT2=
EXTT3=
EXTT4=
EXTT5=
EXTT6=
EXTT7=
EXTT8=
EXTT9=
EXTT10=
EXTT11=
EXTT12=
EXTT13=
EXTT14=
PLAYORDER=
